<svg version="1.1" xmlns="http://www.w3.org/2000/svg" xmlns:xlink="http://www.w3.org/1999/xlink" width="26.44133" height="51.58947" viewBox="0,0,26.44133,51.58947"><g transform="translate(-226.77934,-154.20526)"><g data-paper-data="{&quot;isPaintingLayer&quot;:true}" fill="#49c2ef" fill-rule="nonzero" stroke="none" stroke-width="0" stroke-linecap="butt" stroke-linejoin="miter" stroke-miterlimit="10" stroke-dasharray="" stroke-dashoffset="0" style="mix-blend-mode: normal"><g><path d="M226.77934,198.3503c0,-4.11145 3.33299,-7.44444 7.44444,-7.44444c4.11145,0 7.44444,3.33299 7.44444,7.44444c0,4.11145 -3.33299,7.44444 -7.44444,7.44444c-4.11145,0 -7.44444,-3.33299 -7.44444,-7.44444z"/><path d="M250.2269,155.70215c0,-0.8267 0.67018,-1.49688 1.49688,-1.49688c0.8267,0 1.49688,0.67018 1.49688,1.49688c0,0.8267 -0.67018,1.49688 -1.49688,1.49688c-0.8267,0 -1.49688,-0.67018 -1.49688,-1.49688z"/><path d="M227.3349,195.68363l23,-40.44444l2.55556,1.33333l-11.22222,42.77778z"/></g></g></g></svg>